REM MD5 b32b20b5f43ec90b0d97d4977e3ab530
FILE "Ishin no Arashi - Bakumatsu Shishiden (Japan).bin" BINARY
  TRACK 01 MODE2/2352
    INDEX 01 00:00:00
  TRACK 02 AUDIO
    INDEX 00 29:58:03
    INDEX 01 30:00:03
  TRACK 03 AUDIO
    INDEX 00 32:46:22
    INDEX 01 32:48:22
  TRACK 04 AUDIO
    INDEX 00 35:30:22
    INDEX 01 35:32:22
REM LEADOUT 39:04:48
